# xmcd
#
# Track frame offsets:
#       150
#       15338
#       29138
#       42375
#       55443
#       70470
#       81438
#       94438
#       110838
#       125143
#       139650
#       151918
#       164128
#       174825
#       186563
#       197825
#       208538
#       218943
#       230613
#       248660
#       260463
#       274575
#
# Disc length: 3779 seconds
#
# Revision: 0
# Processed by: cddbd v1.5.1PL0 Copyright (c) Steve Scherf et al.
# Submitted via: CD-DA_X-Tractor v0.24
#
DISCID=580ec116
DTITLE=Connie Francis - Treasury Of Love Songs
DYEAR=1960
DGENRE=
TTITLE0=The Last Waltz
TTITLE1=Somewhere My Love
TTITLE2=Tennessee Waltz
TTITLE3=I Can't Stop Loving You
TTITLE4=Return To Me
TTITLE5=Anniversary Waltz
TTITLE6=My Heart Cries For You
TTITLE7=Kiss Me Goodbye
TTITLE8=Strangers In The Night
TTITLE9=True Love
TTITLE10=Everybody's Somebody's Fool
TTITLE11=Where The Boys Are
TTITLE12=Who's Sorry Now
TTITLE13=My Happiness
TTITLE14=V-A-C-A-T-I-O-N
TTITLE15=Lipstick On Your Collar
TTITLE16=Stupid Cupid
TTITLE17=My Heart Has A Mind Of Its Own
TTITLE18=Mama
TTITLE19=Among My Souvenirs
TTITLE20=Don't Break The Heart That Loves You
TTITLE21=Many Tears Ago
EXTD=
EXTT0=
EXTT1=
EXTT2=
EXTT3=
EXTT4=
EXTT5=
EXTT6=
EXTT7=
EXTT8=
EXTT9=
EXTT10=
EXTT11=
EXTT12=
EXTT13=
EXTT14=
EXTT15=
EXTT16=
EXTT17=
EXTT18=
EXTT19=
EXTT20=
EXTT21=
PLAYORDER=
